<?xml version="1.0" standalone="no"?>
<!DOCTYPE svg PUBLIC "-//W3C//DTD SVG 20010904//EN"
 "http://www.w3.org/TR/2001/REC-SVG-20010904/DTD/svg10.dtd">
<svg version="1.0" xmlns="http://www.w3.org/2000/svg"
 width="300.000000pt" height="89.000000pt" viewBox="0 0 300.000000 89.000000"
 preserveAspectRatio="xMidYMid meet">
<metadata>
Created by potrace 1.10, written by Peter Selinger 2001-2011
</metadata>
<g transform="translate(0.000000,89.000000) scale(0.100000,-0.100000)"
fill="#000000" stroke="none">
<path d="M435 846 c-204 -49 -348 -259 -315 -459 8 -51 50 -168 60 -166 3 0
19 19 35 41 62 86 203 158 351 179 87 12 210 -3 280 -35 53 -24 53 -25 44 -58
-6 -18 -10 -35 -10 -37 0 -2 -10 11 -22 29 -13 19 -43 44 -68 58 -160 85 -353
-97 -326 -308 8 -61 21 -92 34 -74 4 6 39 13 79 16 232 16 416 264 363 489
-41 173 -167 298 -331 329 -65 13 -111 12 -174 -4z m238 -32 c148 -57 257
-214 257 -373 0 -209 -176 -391 -376 -391 -83 0 -72 17 14 22 138 8 251 89
314 224 28 60 30 72 26 152 -5 104 -34 176 -99 247 -216 234 -595 121 -650
-194 -12 -67 0 -160 27 -213 8 -15 10 -29 5 -33 -12 -7 -47 85 -56 146 -16
104 34 239 117 322 85 85 177 119 298 113 41 -3 97 -13 123 -22z m-153 -34 c0
-6 -7 -22 -16 -36 l-17 -24 -14 26 c-11 22 -11 29 -1 36 18 11 48 10 48 -2z
m95 -10 c3 -4 -2 -13 -10 -20 -13 -11 -18 -10 -29 6 -8 10 -12 22 -10 25 5 8
42 0 49 -11z m-164 -75 c1 -33 -1 -70 -5 -82 -5 -15 -3 -23 5 -23 9 0 8 -4 -1
-15 -10 -12 -10 -15 0 -15 10 0 9 -4 -1 -17 -11 -15 -10 -15 8 1 13 10 20 24
16 30 -4 6 2 4 12 -4 10 -8 16 -10 12 -4 -3 6 0 11 6 11 7 0 13 -11 13 -23 0
-18 -3 -21 -13 -12 -24 19 -53 -19 -53 -69 0 -33 -4 -43 -16 -43 -12 0 -15 7
-11 28 4 24 0 21 -44 -27 -27 -30 -52 -51 -56 -48 -4 4 -25 -10 -47 -30 l-40
-38 41 50 c65 78 148 165 123 128 -11 -18 -25 -35 -30 -38 -5 -3 -19 -20 -31
-38 -11 -18 4 -5 34 28 33 36 55 69 55 83 l0 23 -27 -23 c-26 -23 -26 -22 2 8
36 41 35 55 -3 19 -16 -16 -30 -25 -30 -20 0 13 -137 -123 -161 -160 -11 -16
20 13 70 65 50 52 91 91 90 85 0 -5 -43 -55 -96 -110 -52 -55 -92 -94 -88 -86
4 7 2 16 -4 20 -7 5 35 55 111 133 68 68 113 113 101 98 -33 -38 -28 -49 7
-15 22 21 30 38 30 62 0 35 -8 41 -28 21 -19 -19 -14 -32 6 -17 9 7 -1 -6 -22
-29 -22 -23 -42 -39 -45 -37 -3 3 -42 -31 -88 -77 -45 -45 -85 -80 -87 -77 -3
3 53 63 124 134 96 96 130 137 130 155 0 38 12 72 21 63 4 -4 9 -35 10 -68z
m99 -85 c0 -100 -4 -160 -10 -160 -6 0 -10 37 -11 88 -1 48 -3 80 -6 71 -5
-20 -35 -30 -54 -18 -11 6 -8 13 11 33 13 15 28 26 33 26 6 0 1 -10 -11 -23
-12 -13 -22 -27 -22 -33 0 -5 11 3 25 18 21 23 25 37 25 93 0 37 4 65 10 65 6
0 10 -60 10 -160z m100 130 c0 -14 7 -20 23 -21 l22 -2 -22 -4 c-14 -3 -23
-12 -23 -23 0 -10 -4 -22 -10 -25 -5 -3 -10 3 -10 15 0 12 -9 24 -22 29 l-22
8 22 5 c12 4 22 13 22 22 0 9 5 16 10 16 6 0 10 -9 10 -20z m-258 -15 c-5 -28
-10 -30 -34 -11 -20 15 -6 36 23 36 12 0 15 -6 11 -25z m363 -18 c44 -36 95
-112 95 -141 0 -16 -10 -10 -47 31 -41 43 -51 50 -70 42 -13 -4 -23 -13 -23
-19 0 -5 -8 -2 -17 8 -17 16 -17 18 0 35 21 21 27 21 27 2 0 -8 7 -15 15 -15
22 0 18 16 -7 37 -13 10 -28 28 -35 40 -10 18 -9 20 6 16 10 -3 35 -19 56 -36z
m-394 -28 c11 0 11 -2 -1 -6 -8 -4 -20 -13 -27 -22 -11 -14 -12 -14 -13 2 0 9
-8 18 -17 18 -17 1 -17 2 0 6 9 2 17 12 17 21 1 16 2 16 14 0 7 -10 19 -18 27
-19z m412 -197 c57 -50 64 -62 29 -43 -27 14 -242 223 -242 234 0 6 35 -23 78
-64 42 -41 103 -98 135 -127z m-473 156 c15 -16 17 -24 8 -29 -14 -9 -60 29
-52 42 9 14 22 10 44 -13z m390 -114 c41 -43 67 -72 58 -65 -14 11 -18 11 -18
1 0 -10 -3 -10 -15 0 -8 7 -15 9 -15 5 0 -5 -9 0 -20 10 -11 10 -18 20 -15 23
3 3 -2 14 -12 24 -9 10 -12 18 -8 18 5 0 -2 11 -15 25 -12 13 -27 22 -33 18
-6 -3 -7 -1 -3 5 3 6 1 14 -5 18 -8 4 -9 3 -5 -4 4 -7 2 -12 -5 -12 -7 0 6
-16 30 -36 23 -20 39 -39 36 -42 -3 -3 -18 7 -34 22 -16 15 -33 27 -37 27 -5
-1 -9 17 -9 38 l-1 39 26 -18 c14 -10 59 -53 100 -96z m89 50 c-9 -11 -15 -12
-25 -3 -11 9 -12 15 -3 25 9 11 15 12 25 3 11 -9 12 -15 3 -25z m-539 -39
c-13 -14 -27 -25 -32 -25 -11 0 -10 33 2 66 l11 28 21 -22 22 -22 -24 -25z
m20 -70 c-46 -46 -86 -82 -89 -79 -3 2 33 43 79 89 46 46 86 82 89 79 3 -2
-33 -43 -79 -89z m410 -1 c0 -7 -32 4 -42 14 -17 17 -33 15 -19 -2 10 -11 9
-14 -4 -12 -34 5 -56 60 -30 78 7 5 95 -67 95 -78z m209 -1 c1 -29 -16 -29
-45 -2 l-23 21 27 23 27 24 7 -22 c3 -12 6 -32 7 -44z m-585 -60 c-81 -91
-134 -139 -88 -81 42 54 168 187 172 183 2 -2 -35 -48 -84 -102z m481 -37 c14
-9 25 -20 25 -25 0 -4 -39 -11 -86 -15 -47 -3 -95 -11 -105 -17 -11 -6 -27 -9
-36 -7 -13 2 -10 9 14 34 52 51 135 64 188 30z m85 -66 c10 -7 -18 -10 -87
-10 -62 0 -103 4 -103 10 0 13 170 13 190 0z m-67 -27 c-40 -2 -107 -2 -150 0
-43 1 -10 3 72 3 83 0 118 -2 78 -3z m47 -23 c0 -6 -58 -10 -155 -10 -97 0
-155 4 -155 10 0 6 58 10 155 10 97 0 155 -4 155 -10z m-72 -27 c-32 -2 -84
-2 -115 0 -32 2 -6 3 57 3 63 0 89 -1 58 -3z m-163 -23 c4 -6 -15 -10 -50 -10
-35 0 -54 4 -50 10 3 6 26 10 50 10 24 0 47 -4 50 -10z m190 0 c4 -6 -27 -10
-84 -10 -54 0 -91 4 -91 10 0 6 35 10 84 10 47 0 88 -4 91 -10z m-25 -30 c0
-6 -52 -10 -135 -10 -83 0 -135 4 -135 10 0 6 52 10 135 10 83 0 135 -4 135
-10z m-84 -27 c-11 -3 -25 -11 -33 -18 -17 -17 -103 -36 -131 -28 -15 3 -22
13 -22 29 0 24 1 24 103 23 56 -1 93 -4 83 -6z"/>
<path d="M803 779 c21 -19 52 -50 69 -69 25 -29 27 -30 10 -5 -21 31 -62 71
-97 94 -11 8 -3 -1 18 -20z"/>
<path d="M1310 795 c0 -24 -27 -29 -70 -11 -58 23 -135 21 -178 -6 -66 -40
-92 -150 -53 -226 12 -24 47 -57 102 -96 129 -92 166 -124 183 -160 21 -45 20
-84 -4 -123 -37 -61 -124 -81 -197 -46 -38 18 -88 86 -98 134 -4 16 -13 29
-22 29 -16 0 -16 1 9 -147 10 -61 23 -79 34 -48 8 19 32 19 77 0 53 -22 141
-19 186 6 109 61 120 213 21 302 -21 20 -75 61 -119 92 -103 72 -136 114 -136
171 0 31 6 49 24 68 78 83 207 33 245 -96 7 -23 19 -44 25 -46 13 -4 11 46 -5
176 -5 39 -24 61 -24 27z"/>
<path d="M1430 730 c0 -29 4 -40 15 -40 12 0 15 -17 15 -96 0 -81 -2 -95 -15
-90 -12 4 -15 -4 -15 -39 l0 -45 98 0 97 0 -3 45 c-3 26 -9 43 -15 42 -8 -1
-13 27 -15 91 -2 77 0 92 13 92 11 0 15 11 15 40 l0 40 -95 0 -95 0 0 -40z
m139 1 c10 -7 11 -13 1 -31 -13 -24 -10 -191 4 -222 7 -16 2 -18 -49 -18 -51
0 -56 2 -49 18 13 28 17 198 5 219 -7 14 -7 23 1 31 14 14 67 16 87 3z"/>
<path d="M1660 730 c0 -31 4 -40 17 -40 12 0 2 -14 -30 -42 l-48 -43 40 -50
c23 -27 36 -51 31 -53 -6 -2 -10 -21 -10 -43 l0 -39 95 0 95 0 0 40 c0 23 -6
42 -14 47 -8 4 -33 32 -56 61 l-43 53 34 35 c18 19 41 34 51 34 14 0 18 8 18
40 l0 40 -90 0 -90 0 0 -40z m126 -4 c-1 -7 -18 -29 -39 -48 -20 -20 -37 -43
-37 -52 0 -18 43 -90 60 -101 5 -3 17 -19 25 -36 l16 -29 -56 0 -55 0 0 33 c0
18 -11 49 -26 70 l-25 38 31 36 c22 24 30 42 26 56 -3 12 0 27 6 34 14 18 77
17 74 -1z"/>
<path d="M1890 730 c0 -29 4 -40 15 -40 12 0 15 -17 15 -96 0 -81 -2 -95 -15
-90 -12 4 -15 -4 -15 -39 l0 -45 103 0 102 0 -3 44 c-3 33 -7 43 -18 39 -11
-4 -14 13 -14 91 0 75 3 96 14 96 9 0 15 14 18 40 l4 40 -103 0 -103 0 0 -40z
m149 1 c12 -7 12 -13 3 -24 -15 -18 -18 -188 -3 -215 17 -31 15 -32 -48 -32
l-60 0 15 35 c16 40 19 167 3 196 -17 32 -4 49 38 49 21 0 44 -4 52 -9z"/>
<path d="M2150 731 c0 -28 5 -40 18 -43 15 -4 17 -16 14 -96 -3 -72 -7 -92
-18 -92 -10 0 -14 -12 -14 -40 l0 -40 170 0 170 0 0 75 0 75 -40 0 c-38 0 -40
-2 -40 -30 0 -29 -2 -30 -45 -30 l-45 0 0 90 c0 83 1 90 20 90 17 0 20 7 20
40 l0 40 -105 0 -105 0 0 -39z m156 -6 c4 -9 2 -21 -5 -28 -6 -6 -11 -46 -11
-96 0 -73 3 -88 22 -108 29 -31 77 -30 111 1 30 28 36 26 29 -9 l-4 -25 -129
0 c-71 0 -129 3 -129 8 0 4 7 16 15 26 21 28 21 174 -1 204 -21 31 -13 38 46
41 38 1 52 -2 56 -14z"/>
<path d="M2530 730 c0 -33 3 -40 20 -40 19 0 20 -7 20 -95 0 -88 -1 -95 -20
-95 -17 0 -20 -7 -20 -40 l0 -40 175 0 175 0 0 69 c0 75 -5 81 -61 81 -26 0
-29 -4 -29 -30 0 -29 -2 -30 -45 -30 l-45 0 0 90 c0 83 1 90 20 90 17 0 20 7
20 40 l0 40 -105 0 -105 0 0 -40z m157 -6 c3 -8 1 -20 -6 -27 -6 -6 -11 -46
-11 -96 0 -73 3 -88 22 -108 28 -30 87 -32 113 -3 24 27 33 25 31 -5 l-1 -25
-129 0 c-118 0 -128 1 -120 18 14 29 17 202 4 218 -7 7 -10 21 -6 29 8 21 94
21 103 -1z"/>
<path d="M958 430 c-3 -52 -9 -106 -12 -120 -3 -14 1 -5 9 20 10 28 14 73 13
120 l-3 75 -7 -95z"/>
<path d="M518 396 c3 -5 -2 -7 -11 -3 -10 4 -16 2 -14 -5 1 -6 -4 -13 -12 -16
-9 -3 -11 0 -6 8 10 17 -27 -4 -44 -24 -10 -12 -18 -13 -35 -4 -11 6 -18 7
-14 3 3 -4 -16 -35 -43 -68 -28 -34 -57 -83 -67 -109 -16 -47 -32 -63 -32 -33
0 26 46 107 90 160 l42 50 -53 -55 c-30 -31 -63 -74 -74 -95 -11 -22 -21 -42
-22 -44 -1 -1 -6 0 -12 3 -14 9 29 78 88 140 38 41 41 45 14 27 -32 -22 -81
-78 -102 -118 -6 -13 -15 -23 -20 -23 -5 0 -21 24 -37 54 -16 30 -30 53 -32
51 -11 -11 68 -133 112 -172 53 -48 146 -96 206 -108 33 -7 34 -6 15 8 -17 13
-20 27 -20 99 0 94 19 148 74 210 22 25 28 39 20 44 -8 4 -4 11 12 20 l24 12
-27 -1 c-14 -1 -24 -6 -20 -11z m5 -22 c4 -4 -9 -25 -29 -46 -57 -64 -77 -120
-78 -216 0 -96 -19 -109 -24 -16 -4 78 12 132 61 202 37 54 38 55 8 27 -49
-46 -83 -125 -89 -205 -2 -39 -8 -70 -13 -70 -16 0 -20 42 -9 98 13 63 30 100
68 150 13 17 20 32 16 32 -14 0 -72 -91 -89 -139 -8 -24 -15 -58 -15 -77 0
-18 -5 -36 -12 -40 -22 -14 -1 101 29 157 38 73 40 80 9 40 -25 -34 -49 -90
-60 -144 -4 -15 -11 -27 -17 -27 -15 0 -5 46 21 102 26 56 92 138 107 133 6
-2 19 5 29 16 10 11 25 17 35 14 9 -3 20 -1 24 5 7 11 19 13 28 4z"/>
<path d="M1430 330 c0 -17 7 -20 40 -20 l40 0 0 -89 0 -90 28 3 27 4 -2 86 -1
86 38 0 c29 0 39 4 43 20 5 19 0 20 -104 20 -102 0 -109 -1 -109 -20z"/>
<path d="M1703 333 c-3 -10 -23 -60 -44 -110 l-38 -93 30 0 c22 0 32 6 39 25
8 22 16 25 57 25 40 0 50 -4 58 -22 9 -20 72 -41 63 -21 -85 203 -92 213 -126
213 -22 0 -35 -6 -39 -17z m76 -115 c1 -5 -15 -8 -34 -8 -39 0 -39 0 -26 32 5
13 12 32 16 43 6 17 10 15 25 -20 10 -22 19 -43 19 -47z"/>
<path d="M1908 241 c3 -108 3 -108 28 -108 23 0 24 2 24 71 l1 71 26 -30 c76
-88 97 -107 119 -111 l24 -4 0 110 0 110 -31 0 -31 0 7 -65 c4 -36 3 -65 -1
-64 -5 0 -33 29 -62 65 -41 50 -59 64 -80 64 l-27 0 3 -109z"/>
<path d="M2180 242 l0 -107 78 3 c87 4 113 17 132 62 19 47 3 99 -39 127 -27
18 -48 23 -102 23 l-69 0 0 -108z m138 52 c15 -10 22 -25 22 -48 0 -45 -19
-66 -65 -73 l-40 -5 0 71 0 71 30 0 c17 0 41 -7 53 -16z"/>
<path d="M2553 334 c-6 -17 14 -36 32 -31 6 2 11 13 13 25 3 17 -2 22 -18 22
-11 0 -23 -7 -27 -16z"/>
<path d="M2652 243 l3 -108 29 -3 28 -4 -4 71 c-2 39 -1 71 2 71 3 0 29 -29
59 -65 29 -36 60 -66 67 -66 8 -1 19 -2 25 -3 7 -1 11 36 12 107 l2 107 -27 0
c-26 0 -27 -2 -30 -65 l-3 -66 -55 65 c-43 52 -61 66 -83 66 l-28 0 3 -107z"/>
<path d="M2556 208 c0 -67 2 -73 22 -76 21 -3 22 0 22 72 0 72 -1 76 -23 76
-21 0 -22 -4 -21 -72z"/>
<path d="M891 208 c-28 -47 -98 -112 -151 -142 -25 -14 -40 -26 -34 -26 7 0
38 18 71 39 56 38 106 90 132 139 18 34 5 26 -18 -10z"/>
<path d="M2430 207 c0 -20 5 -22 40 -22 35 0 40 2 40 22 0 20 -5 23 -40 23
-35 0 -40 -3 -40 -23z"/>
</g>
</svg>
